<svg xmlns="http://www.w3.org/2000/svg" xmlns:xlink="http://www.w3.org/1999/xlink" width="561.126" height="532.958" viewBox="0 0 561.126 532.958">
  <defs>
    <radialGradient id="radial-gradient" cx="0.5" cy="0.5" r="0.707" gradientUnits="objectBoundingBox">
      <stop offset="0" stop-color="#42e8e0"/>
      <stop offset="0.023" stop-color="#3fd8d6"/>
      <stop offset="0.098" stop-color="#35a9b9"/>
      <stop offset="0.179" stop-color="#2d7fa0"/>
      <stop offset="0.262" stop-color="#275b8a"/>
      <stop offset="0.35" stop-color="#213f79"/>
      <stop offset="0.443" stop-color="#1d286b"/>
      <stop offset="0.545" stop-color="#1a1962"/>
      <stop offset="0.661" stop-color="#180f5c"/>
      <stop offset="0.823" stop-color="#180d5b"/>
    </radialGradient>
    <radialGradient id="radial-gradient-2" r="0.5" xlink:href="#radial-gradient"/>
    <linearGradient id="linear-gradient" x1="-0.221" y1="0.5" x2="0.779" y2="0.5" gradientUnits="objectBoundingBox">
      <stop offset="0" stop-color="#42e8e0"/>
      <stop offset="0.102" stop-color="#3cc9cd"/>
      <stop offset="0.344" stop-color="#2f87a5"/>
      <stop offset="0.564" stop-color="#255285"/>
      <stop offset="0.753" stop-color="#1e2c6e"/>
      <stop offset="0.905" stop-color="#191560"/>
      <stop offset="1" stop-color="#180d5b"/>
    </linearGradient>
    <linearGradient id="linear-gradient-2" y1="0.5" x2="1" y2="0.5" gradientUnits="objectBoundingBox">
      <stop offset="0" stop-color="#2b237c"/>
      <stop offset="1" stop-color="#180d5b"/>
    </linearGradient>
    <linearGradient id="linear-gradient-3" x1="0" y1="0.5" x2="1" y2="0.5" xlink:href="#linear-gradient"/>
    <linearGradient id="linear-gradient-5" x1="0.136" y1="0.839" x2="0.973" y2="-0.924" xlink:href="#linear-gradient"/>
    <linearGradient id="linear-gradient-41" x1="0.5" y1="1" x2="0.5" gradientUnits="objectBoundingBox">
      <stop offset="0.011" stop-color="#25bfec"/>
      <stop offset="0.045" stop-color="#23b4e1"/>
      <stop offset="0.219" stop-color="#1e82af"/>
      <stop offset="0.39" stop-color="#1a5986"/>
      <stop offset="0.557" stop-color="#173a66"/>
      <stop offset="0.717" stop-color="#14234f"/>
      <stop offset="0.868" stop-color="#131541"/>
      <stop offset="1" stop-color="#13113d"/>
    </linearGradient>
  </defs>
  <g id="Group_48" data-name="Group 48" transform="translate(-575.253 -349.094)">
    <g id="Group_17" data-name="Group 17" transform="translate(575.253 462.345)">
      <path id="Path_18" data-name="Path 18" d="M579.366,461.143c-8,0-15.636-1.612-21.331-4.9L308.9,312.4c-5.574-3.219-8.642-7.688-8.642-12.588,0-5.894,4.42-11.824,12.131-16.276L554.537,143.731c14.485-8.366,36.495-9.266,49.059-2.015L852.736,285.557c5.574,3.218,8.642,7.688,8.642,12.588,0,5.89-4.42,11.823-12.131,16.276L607.093,454.228C599.175,458.8,589.009,461.143,579.366,461.143ZM558.5,455.434c12.308,7.1,33.9,6.2,48.125-2.017L848.781,313.611c7.414-4.28,11.664-9.916,11.664-15.466,0-4.553-2.9-8.738-8.176-11.78L603.129,142.525c-12.308-7.107-33.9-6.2-48.125,2.015L312.851,284.345c-7.414,4.28-11.664,9.918-11.664,15.468,0,4.551,2.9,8.734,8.176,11.778Z" transform="translate(-300.253 -41.436)" fill="#6ee8fc"/>
      <ellipse id="Ellipse_1" data-name="Ellipse 1" cx="205.981" cy="118.923" rx="205.981" ry="118.923" transform="translate(11.08 0)" opacity="0.3" fill="url(#radial-gradient)" style="mix-blend-mode: lighten;isolation: isolate"/>
      <g id="Group_12" data-name="Group 12" transform="translate(192.297 96.605)">
        <circle id="Ellipse_4" data-name="Ellipse 4" cx="18.804" cy="18.804" r="18.804" transform="translate(0 26.593) rotate(-45)" fill="url(#radial-gradient-2)" style="mix-blend-mode: lighten;isolation: isolate"/>
        <circle id="Ellipse_5" data-name="Ellipse 5" cx="5.361" cy="5.361" r="5.361" transform="translate(21.233 21.232)" fill="#6ee8fc"/>
      </g>
      <g id="Group_13" data-name="Group 13" transform="translate(6.684 210.273)">
        <circle id="Ellipse_6" data-name="Ellipse 6" cx="18.804" cy="18.804" r="18.804" transform="translate(0 36.611) rotate(-76.776)" fill="url(#radial-gradient-2)" style="mix-blend-mode: lighten;isolation: isolate"/>
        <path id="Path_19" data-name="Path 19" d="M323.789,212.938a5.36,5.36,0,1,1-5.359-5.361A5.36,5.36,0,0,1,323.789,212.938Z" transform="translate(-295.821 -190.33)" fill="#6ee8fc"/>
      </g>
      <g id="Group_14" data-name="Group 14" transform="translate(414.238 308.301)">
        <circle id="Ellipse_7" data-name="Ellipse 7" cx="18.804" cy="18.804" r="18.804" transform="translate(0 26.593) rotate(-45)" fill="url(#radial-gradient-2)" style="mix-blend-mode: lighten;isolation: isolate"/>
        <circle id="Ellipse_8" data-name="Ellipse 8" cx="5.361" cy="5.361" r="5.361" transform="translate(21.232 21.232)" fill="#6ee8fc"/>
      </g>
      <g id="Group_15" data-name="Group 15" transform="translate(453.068 291.731)">
        <circle id="Ellipse_9" data-name="Ellipse 9" cx="18.804" cy="18.804" r="18.804" transform="translate(0 36.602) rotate(-76.717)" fill="url(#radial-gradient-2)" style="mix-blend-mode: lighten;isolation: isolate"/>
        <circle id="Ellipse_10" data-name="Ellipse 10" cx="5.361" cy="5.361" r="5.361" transform="translate(17.261 17.261)" fill="#6ee8fc"/>
      </g>
      <g id="Group_16" data-name="Group 16" transform="translate(487.926 271.501)">
        <circle id="Ellipse_11" data-name="Ellipse 11" cx="18.804" cy="18.804" r="18.804" transform="translate(0 36.602) rotate(-76.717)" fill="url(#radial-gradient-2)" style="mix-blend-mode: lighten;isolation: isolate"/>
        <path id="Path_20" data-name="Path 20" d="M581.5,245.731a5.36,5.36,0,1,1-5.361-5.359A5.36,5.36,0,0,1,581.5,245.731Z" transform="translate(-553.52 -223.111)" fill="#6ee8fc"/>
      </g>
    </g>
    <g id="Group_37" data-name="Group 37" transform="translate(608.937 349.094)">
      <g id="Group_33" data-name="Group 33" transform="translate(0 104.555)">
        <g id="Group_19" data-name="Group 19" transform="translate(142.282 62.291)">
          <path id="Path_21" data-name="Path 21" d="M482.116,256.071l-78.26-45.182c-5.946-3.434-5.2-9.43,1.666-13.395l74.924-43.257c6.867-3.965,17.253-4.394,23.2-.962L581.9,198.457c5.946,3.434,5.2,9.43-1.666,13.395l-74.924,43.257C498.448,259.074,488.062,259.505,482.116,256.071Z" transform="translate(-389.833 -82.765)" fill="#084591" opacity="0.5"/>
          <path id="Path_22" data-name="Path 22" d="M600.543,176.906V160.727H558.8l-49.348-28.493c-6.586-3.8-18.091-3.324-25.7,1.066l-47.505,27.427h-41.77v17.1h.034c-.187,2.573,1.247,5.057,4.413,6.883l86.678,50.045c6.586,3.8,18.09,3.324,25.7-1.066l82.984-47.91C598.673,183.241,600.789,179.961,600.543,176.906Z" transform="translate(-394.483 -101.232)" fill="#0567e1"/>
          <path id="Path_23" data-name="Path 23" d="M600.543,176.906V160.727H558.8l-49.348-28.493c-6.586-3.8-18.091-3.324-25.7,1.066l-47.505,27.427h-41.77v17.1h.034c-.187,2.573,1.247,5.057,4.413,6.883l86.678,50.045c6.586,3.8,18.09,3.324,25.7-1.066l82.984-47.91C598.673,183.241,600.789,179.961,600.543,176.906Z" transform="translate(-394.483 -101.232)" opacity="0.5" fill="url(#linear-gradient)"/>
          <path id="Path_24" data-name="Path 24" d="M461.592,132.23a23.292,23.292,0,0,0-11.931-2.547V237.294a29.641,29.641,0,0,0,13.78-3.613l82.984-47.91c4.387-2.534,6.5-5.813,6.256-8.868V160.723H510.94Z" transform="translate(-346.621 -101.228)" fill="url(#linear-gradient-2)"/>
          <path id="Path_25" data-name="Path 25" d="M485.607,230.862l-86.678-50.043c-6.586-3.8-5.761-10.444,1.845-14.835l82.984-47.91c7.6-4.392,19.109-4.868,25.7-1.066l86.678,50.043c6.585,3.8,5.759,10.444-1.845,14.837L511.3,229.8C503.7,234.187,492.192,234.666,485.607,230.862Z" transform="translate(-394.483 -114.44)" fill="#0567e1"/>
          <path id="Path_26" data-name="Path 26" d="M485.607,230.862l-86.678-50.043c-6.586-3.8-5.761-10.444,1.845-14.835l82.984-47.91c7.6-4.392,19.109-4.868,25.7-1.066l86.678,50.043c6.585,3.8,5.759,10.444-1.845,14.837L511.3,229.8C503.7,234.187,492.192,234.666,485.607,230.862Z" transform="translate(-394.483 -114.44)" opacity="0.5" fill="url(#linear-gradient-3)"/>
          <path id="Path_27" data-name="Path 27" d="M478.623,214.431l-69.836-40.319c-5.307-3.064-4.641-8.415,1.486-11.953l66.861-38.6c6.127-3.539,15.4-3.922,20.7-.859l69.838,40.321c5.305,3.063,4.64,8.415-1.487,11.951l-66.861,38.6C493.2,217.111,483.93,217.5,478.623,214.431Z" transform="translate(-385.183 -109.071)" fill="#5cfff3"/>
          <path id="Path_28" data-name="Path 28" d="M410.272,167.389l66.861-38.6c6.127-3.539,15.4-3.923,20.7-.859l69.838,40.319a7.8,7.8,0,0,1,2.842,2.627c1.541-2.831.652-5.839-2.842-7.856L497.835,122.7c-5.305-3.063-14.575-2.68-20.7.859l-66.861,38.6c-4.614,2.665-6.129,6.357-4.329,9.326A11.1,11.1,0,0,1,410.272,167.389Z" transform="translate(-385.181 -109.071)" fill="#42e8e0"/>
          <path id="Path_29" data-name="Path 29" d="M488.517,230.856l-86.678-50.043c-6.584-3.8-8.159-9.387,1.845-14.835l82.984-47.91a29.382,29.382,0,0,1,13-3.589,30.147,30.147,0,0,0-15.91,3.589l-82.984,47.91c-7.606,4.39-8.431,11.033-1.845,14.835l86.678,50.043c3.346,1.933,7.965,2.754,12.695,2.525A21.809,21.809,0,0,1,488.517,230.856Z" transform="translate(-394.483 -114.435)" opacity="0.5" fill="url(#linear-gradient-3)"/>
          <path id="Path_30" data-name="Path 30" d="M594.287,158.545,511.3,206.458c-7.606,4.39-19.109,4.868-25.7,1.064l-86.678-50.043c-3.165-1.826-4.6-4.31-4.413-6.883h-.034v3.542h.034c-.187,2.573,1.247,5.057,4.413,6.883l86.678,50.043c6.586,3.8,18.09,3.326,25.7-1.064l82.984-47.91c4.386-2.534,6.5-5.813,6.256-8.868v-3.542C600.789,152.732,598.673,156.013,594.287,158.545Z" transform="translate(-394.483 -83.874)" opacity="0.5" fill="url(#linear-gradient-5)"/>
          <g id="Group_18" data-name="Group 18" transform="translate(180.619 63.385)">
            <path id="Path_31" data-name="Path 31" d="M495.34,152.092a1.044,1.044,0,0,1,0,1.978,3.794,3.794,0,0,1-3.427,0,1.044,1.044,0,0,1,0-1.978A3.782,3.782,0,0,1,495.34,152.092Z" transform="translate(-491.205 -145.522)" fill="#fccc6b"/>
            <path id="Path_32" data-name="Path 32" d="M498.2,150.441a1.044,1.044,0,0,1,0,1.978,3.782,3.782,0,0,1-3.427,0,1.044,1.044,0,0,1,0-1.978A3.793,3.793,0,0,1,498.2,150.441Z" transform="translate(-488.726 -146.953)" fill="#fccc6b"/>
            <path id="Path_33" data-name="Path 33" d="M501.053,148.792a1.043,1.043,0,0,1,0,1.978,3.778,3.778,0,0,1-3.425,0,1.043,1.043,0,0,1,0-1.978A3.79,3.79,0,0,1,501.053,148.792Z" transform="translate(-486.249 -148.383)" fill="#fccc6b"/>
          </g>
        </g>
        <g id="Group_21" data-name="Group 21" transform="translate(0 144.547)">
          <path id="Path_34" data-name="Path 34" d="M405.923,300.119l-78.258-45.182c-5.946-3.434-5.2-9.43,1.666-13.395l74.924-43.257c6.867-3.965,17.253-4.4,23.2-.962l78.259,45.182c5.946,3.434,5.2,9.43-1.666,13.395l-74.924,43.257C422.258,303.122,411.871,303.552,405.923,300.119Z" transform="translate(-313.641 -126.813)" fill="#084591" opacity="0.5"/>
          <path id="Path_35" data-name="Path 35" d="M524.353,220.955V204.775h-41.74l-49.35-28.493c-6.584-3.8-18.09-3.326-25.7,1.066l-47.5,27.427H318.291v17.1h.036c-.189,2.573,1.247,5.057,4.413,6.883L409.415,278.8c6.586,3.8,18.091,3.326,25.7-1.064l82.984-47.91C522.481,227.289,524.6,224.01,524.353,220.955Z" transform="translate(-318.291 -145.28)" fill="#0567e1"/>
          <path id="Path_36" data-name="Path 36" d="M524.353,220.955V204.775h-41.74l-49.35-28.493c-6.584-3.8-18.09-3.326-25.7,1.066l-47.5,27.427H318.291v17.1h.036c-.189,2.573,1.247,5.057,4.413,6.883L409.415,278.8c6.586,3.8,18.091,3.326,25.7-1.064l82.984-47.91C522.481,227.289,524.6,224.01,524.353,220.955Z" transform="translate(-318.291 -145.28)" opacity="0.5" fill="url(#linear-gradient)"/>
          <path id="Path_37" data-name="Path 37" d="M385.4,176.277a23.265,23.265,0,0,0-11.931-2.547V281.342a29.64,29.64,0,0,0,13.78-3.613l82.984-47.91c4.387-2.534,6.5-5.813,6.258-8.868V204.771H434.75Z" transform="translate(-270.429 -145.276)" fill="url(#linear-gradient-2)"/>
          <path id="Path_38" data-name="Path 38" d="M409.415,274.91l-86.676-50.043c-6.586-3.8-5.761-10.444,1.843-14.835l82.984-47.91c7.606-4.392,19.109-4.868,25.7-1.066L519.939,211.1c6.586,3.8,5.761,10.444-1.845,14.835L435.11,273.845C427.506,278.235,416,278.712,409.415,274.91Z" transform="translate(-318.29 -158.488)" fill="#0567e1"/>
          <path id="Path_39" data-name="Path 39" d="M409.415,274.91l-86.676-50.043c-6.586-3.8-5.761-10.444,1.843-14.835l82.984-47.91c7.606-4.392,19.109-4.868,25.7-1.066L519.939,211.1c6.586,3.8,5.761,10.444-1.845,14.835L435.11,273.845C427.506,278.235,416,278.712,409.415,274.91Z" transform="translate(-318.29 -158.488)" opacity="0.5" fill="url(#linear-gradient-3)"/>
          <path id="Path_40" data-name="Path 40" d="M402.432,258.479,332.595,218.16c-5.305-3.064-4.64-8.416,1.487-11.953l66.861-38.6c6.129-3.539,15.4-3.922,20.7-.859l69.836,40.321c5.307,3.063,4.641,8.415-1.486,11.951l-66.861,38.6C417.007,261.159,407.738,261.544,402.432,258.479Z" transform="translate(-308.991 -153.119)" fill="#5cfff3"/>
          <path id="Path_41" data-name="Path 41" d="M334.08,211.437l66.861-38.6c6.129-3.537,15.4-3.922,20.7-.857L491.48,212.3a7.768,7.768,0,0,1,2.842,2.627c1.541-2.831.652-5.839-2.842-7.856l-69.836-40.321c-5.307-3.063-14.575-2.68-20.7.859l-66.861,38.6c-4.614,2.665-6.127,6.357-4.329,9.326A11.1,11.1,0,0,1,334.08,211.437Z" transform="translate(-308.989 -153.119)" fill="#42e8e0"/>
          <path id="Path_42" data-name="Path 42" d="M412.326,274.9l-86.678-50.043c-6.586-3.8-8.161-9.388,1.845-14.835l82.984-47.91a29.374,29.374,0,0,1,13-3.589,30.153,30.153,0,0,0-15.912,3.589l-82.984,47.91c-7.6,4.39-8.43,11.033-1.843,14.835L409.415,274.9c3.348,1.933,7.964,2.754,12.695,2.525A21.808,21.808,0,0,1,412.326,274.9Z" transform="translate(-318.29 -158.483)" opacity="0.5" fill="url(#linear-gradient-3)"/>
          <path id="Path_43" data-name="Path 43" d="M518.095,202.594l-82.984,47.912c-7.6,4.39-19.109,4.866-25.7,1.064l-86.676-50.043c-3.165-1.826-4.6-4.31-4.413-6.883h-.036v3.542h.036c-.189,2.573,1.247,5.057,4.413,6.883l86.676,50.043c6.586,3.8,18.091,3.326,25.7-1.064l82.984-47.91c4.387-2.534,6.5-5.813,6.258-8.868v-3.542C524.6,196.78,522.481,200.061,518.095,202.594Z" transform="translate(-318.291 -127.922)" opacity="0.5" fill="url(#linear-gradient-5)"/>
          <g id="Group_20" data-name="Group 20" transform="translate(180.619 63.383)">
            <path id="Path_44" data-name="Path 44" d="M419.148,196.14a1.043,1.043,0,0,1,0,1.978,3.789,3.789,0,0,1-3.425,0,1.043,1.043,0,0,1,0-1.978A3.778,3.778,0,0,1,419.148,196.14Z" transform="translate(-415.013 -189.569)" fill="#fccc6b"/>
            <path id="Path_45" data-name="Path 45" d="M422,194.489a1.044,1.044,0,0,1,0,1.978,3.778,3.778,0,0,1-3.425,0,1.044,1.044,0,0,1,0-1.978A3.79,3.79,0,0,1,422,194.489Z" transform="translate(-412.535 -190.999)" fill="#fccc6b"/>
            <path id="Path_46" data-name="Path 46" d="M424.862,192.841a1.044,1.044,0,0,1,0,1.978,3.793,3.793,0,0,1-3.427,0,1.044,1.044,0,0,1,0-1.978A3.782,3.782,0,0,1,424.862,192.841Z" transform="translate(-410.057 -192.43)" fill="#fccc6b"/>
          </g>
        </g>
        <g id="Group_23" data-name="Group 23" transform="translate(284.562 143.852)">
          <path id="Path_47" data-name="Path 47" d="M558.306,299.747l-78.258-45.182c-5.946-3.432-5.2-9.43,1.666-13.395l74.924-43.257c6.867-3.965,17.253-4.394,23.2-.962l78.26,45.182c5.946,3.434,5.2,9.43-1.666,13.395l-74.924,43.257C574.641,302.75,564.254,303.181,558.306,299.747Z" transform="translate(-466.024 -126.441)" fill="#084591" opacity="0.5"/>
          <path id="Path_48" data-name="Path 48" d="M676.736,220.582V204.4H635l-49.35-28.493c-6.585-3.8-18.09-3.324-25.7,1.066l-47.5,27.427H470.674v17.1h.035c-.189,2.573,1.247,5.057,4.413,6.885L561.8,278.425c6.586,3.8,18.091,3.328,25.7-1.064l82.984-47.91C674.864,226.918,676.982,223.637,676.736,220.582Z" transform="translate(-470.674 -144.908)" fill="#0567e1"/>
          <path id="Path_49" data-name="Path 49" d="M676.736,220.582V204.4H635l-49.35-28.493c-6.585-3.8-18.09-3.324-25.7,1.066l-47.5,27.427H470.674v17.1h.035c-.189,2.573,1.247,5.057,4.413,6.885L561.8,278.425c6.586,3.8,18.091,3.328,25.7-1.064l82.984-47.91C674.864,226.918,676.982,223.637,676.736,220.582Z" transform="translate(-470.674 -144.908)" opacity="0.5" fill="url(#linear-gradient)"/>
          <path id="Path_50" data-name="Path 50" d="M537.783,175.905a23.284,23.284,0,0,0-11.931-2.547V280.97a29.641,29.641,0,0,0,13.78-3.613l82.984-47.91c4.387-2.532,6.5-5.813,6.258-8.868V204.4h-41.74Z" transform="translate(-422.812 -144.904)" fill="url(#linear-gradient-2)"/>
          <path id="Path_51" data-name="Path 51" d="M561.8,274.538l-86.676-50.043c-6.586-3.8-5.761-10.444,1.843-14.835l82.984-47.91c7.606-4.392,19.111-4.868,25.7-1.066l86.676,50.043c6.586,3.8,5.761,10.444-1.845,14.837l-82.984,47.91C579.889,277.863,568.384,278.341,561.8,274.538Z" transform="translate(-470.673 -158.116)" fill="#0567e1"/>
          <path id="Path_52" data-name="Path 52" d="M561.8,274.538l-86.676-50.043c-6.586-3.8-5.761-10.444,1.843-14.835l82.984-47.91c7.606-4.392,19.111-4.868,25.7-1.066l86.676,50.043c6.586,3.8,5.761,10.444-1.845,14.837l-82.984,47.91C579.889,277.863,568.384,278.341,561.8,274.538Z" transform="translate(-470.673 -158.116)" opacity="0.5" fill="url(#linear-gradient-3)"/>
          <path id="Path_53" data-name="Path 53" d="M554.815,258.107l-69.836-40.319c-5.307-3.064-4.642-8.415,1.485-11.953l66.861-38.6c6.129-3.539,15.4-3.922,20.7-.859L643.865,206.7c5.307,3.063,4.64,8.415-1.487,11.951l-66.861,38.6C569.39,260.787,560.12,261.172,554.815,258.107Z" transform="translate(-461.374 -152.747)" fill="#5cfff3"/>
          <path id="Path_54" data-name="Path 54" d="M486.463,211.065l66.861-38.6c6.129-3.539,15.4-3.923,20.7-.859l69.836,40.319a7.792,7.792,0,0,1,2.844,2.627c1.539-2.831.65-5.839-2.844-7.856l-69.836-40.321c-5.307-3.063-14.575-2.68-20.7.859l-66.861,38.6c-4.614,2.665-6.127,6.357-4.329,9.326A11.112,11.112,0,0,1,486.463,211.065Z" transform="translate(-461.372 -152.747)" fill="#42e8e0"/>
          <path id="Path_55" data-name="Path 55" d="M564.709,274.532l-86.678-50.043c-6.586-3.8-8.161-9.386,1.845-14.835l82.984-47.91a29.374,29.374,0,0,1,13-3.589,30.154,30.154,0,0,0-15.912,3.589l-82.984,47.91c-7.6,4.39-8.43,11.033-1.843,14.835L561.8,274.532c3.348,1.933,7.964,2.754,12.695,2.525A21.807,21.807,0,0,1,564.709,274.532Z" transform="translate(-470.673 -158.11)" opacity="0.5" fill="url(#linear-gradient-3)"/>
          <path id="Path_56" data-name="Path 56" d="M670.478,202.223l-82.984,47.91c-7.6,4.39-19.109,4.868-25.7,1.064l-86.676-50.043c-3.165-1.826-4.6-4.31-4.413-6.883h-.035v3.543h.035c-.189,2.573,1.247,5.057,4.413,6.885L561.8,254.742c6.586,3.8,18.091,3.324,25.7-1.066l82.984-47.91c4.387-2.532,6.5-5.813,6.258-8.868v-3.542C676.982,196.408,674.864,199.689,670.478,202.223Z" transform="translate(-470.674 -127.55)" opacity="0.5" fill="url(#linear-gradient-5)"/>
          <g id="Group_22" data-name="Group 22" transform="translate(180.619 63.385)">
            <path id="Path_57" data-name="Path 57" d="M571.531,195.768a1.043,1.043,0,0,1,0,1.978,3.79,3.79,0,0,1-3.425,0,1.043,1.043,0,0,1,0-1.978A3.778,3.778,0,0,1,571.531,195.768Z" transform="translate(-567.396 -189.198)" fill="#fccc6b"/>
            <path id="Path_58" data-name="Path 58" d="M574.388,194.117a1.043,1.043,0,0,1,0,1.978,3.778,3.778,0,0,1-3.425,0,1.043,1.043,0,0,1,0-1.978A3.789,3.789,0,0,1,574.388,194.117Z" transform="translate(-564.918 -190.629)" fill="#fccc6b"/>
            <path id="Path_59" data-name="Path 59" d="M577.245,192.468a1.044,1.044,0,0,1,0,1.978,3.782,3.782,0,0,1-3.427,0,1.044,1.044,0,0,1,0-1.978A3.793,3.793,0,0,1,577.245,192.468Z" transform="translate(-562.44 -192.059)" fill="#fccc6b"/>
          </g>
        </g>
        <g id="Group_24" data-name="Group 24" transform="translate(142.282)">
          <path id="Path_60" data-name="Path 60" d="M472.38,199.81,417.6,168.181c-4.162-2.4-3.64-6.6,1.167-9.374l52.446-30.282c4.807-2.773,12.077-3.076,16.239-.672l54.781,31.628c4.162,2.4,3.641,6.6-1.165,9.376l-52.446,30.28C483.814,201.912,476.542,202.213,472.38,199.81Z" transform="translate(-376.869 -41.922)" fill="#084591" opacity="0.5"/>
          <path id="Path_61" data-name="Path 61" d="M600.549,173.919a6,6,0,0,0,0-.915v-45.2l-71.8.319-19.288-11.135c-6.586-3.8-18.09-3.326-25.7,1.066l-17.925,10.349-71.35.317v45.2h.036c-.189,2.573,1.247,5.057,4.411,6.883l86.678,50.043c6.586,3.8,18.09,3.326,25.7-1.064l82.984-47.91c3.951-2.282,6.054-5.169,6.258-7.951h0Z" transform="translate(-394.479 -52.162)" fill="#5cfff3" opacity="0.5"/>
          <path id="Path_62" data-name="Path 62" d="M600.543,143.549V127.37H558.8L509.454,98.877c-6.586-3.8-18.091-3.324-25.7,1.066L436.253,127.37h-41.77v17.1h.034c-.187,2.573,1.247,5.057,4.413,6.883l86.678,50.045c6.586,3.8,18.09,3.324,25.7-1.066l82.984-47.91C598.673,149.884,600.789,146.6,600.543,143.549Z" transform="translate(-394.483 -67.875)" fill="#0567e1"/>
          <path id="Path_63" data-name="Path 63" d="M600.543,143.549V127.37H558.8L509.454,98.877c-6.586-3.8-18.091-3.324-25.7,1.066L436.253,127.37h-41.77v17.1h.034c-.187,2.573,1.247,5.057,4.413,6.883l86.678,50.045c6.586,3.8,18.09,3.324,25.7-1.066l82.984-47.91C598.673,149.884,600.789,146.6,600.543,143.549Z" transform="translate(-394.483 -67.875)" opacity="0.5" fill="url(#linear-gradient)"/>
          <path id="Path_64" data-name="Path 64" d="M461.592,98.873a23.292,23.292,0,0,0-11.931-2.547V203.937a29.641,29.641,0,0,0,13.78-3.613l82.984-47.91c4.387-2.534,6.5-5.813,6.256-8.868V127.365H510.94Z" transform="translate(-346.621 -67.871)" fill="url(#linear-gradient-2)"/>
          <path id="Path_65" data-name="Path 65" d="M485.607,197.5l-86.678-50.043c-6.586-3.8-5.761-10.444,1.845-14.835l82.984-47.91c7.6-4.392,19.109-4.868,25.7-1.066l86.678,50.043c6.585,3.8,5.759,10.444-1.845,14.837L511.3,196.44C503.7,200.83,492.192,201.309,485.607,197.5Z" transform="translate(-394.483 -81.083)" fill="#0567e1"/>
          <path id="Path_66" data-name="Path 66" d="M485.607,197.5l-86.678-50.043c-6.586-3.8-5.761-10.444,1.845-14.835l82.984-47.91c7.6-4.392,19.109-4.868,25.7-1.066l86.678,50.043c6.585,3.8,5.759,10.444-1.845,14.837L511.3,196.44C503.7,200.83,492.192,201.309,485.607,197.5Z" transform="translate(-394.483 -81.083)" opacity="0.5" fill="url(#linear-gradient-3)"/>
          <path id="Path_67" data-name="Path 67" d="M488.517,197.5l-86.678-50.043c-6.584-3.8-8.159-9.387,1.845-14.835l82.984-47.91a29.382,29.382,0,0,1,13-3.589,30.146,30.146,0,0,0-15.91,3.589l-82.984,47.91c-7.606,4.39-8.431,11.033-1.845,14.835L485.607,197.5c3.346,1.933,7.965,2.754,12.695,2.525A21.809,21.809,0,0,1,488.517,197.5Z" transform="translate(-394.483 -81.078)" opacity="0.5" fill="url(#linear-gradient-3)"/>
          <path id="Path_68" data-name="Path 68" d="M594.287,125.188,511.3,173.1c-7.606,4.39-19.109,4.868-25.7,1.064l-86.678-50.043c-3.165-1.826-4.6-4.31-4.413-6.883h-.034v3.542h.034c-.187,2.573,1.247,5.057,4.413,6.883l86.678,50.045c6.586,3.8,18.09,3.324,25.7-1.066l82.984-47.91c4.386-2.534,6.5-5.813,6.256-8.868v-3.542C600.789,119.375,598.673,122.656,594.287,125.188Z" transform="translate(-394.483 -50.517)" opacity="0.5" fill="url(#linear-gradient-5)"/>
        </g>
        <g id="Group_26" data-name="Group 26" transform="translate(0 82.256)">
          <path id="Path_69" data-name="Path 69" d="M396.189,243.858l-54.781-31.628c-4.162-2.4-3.641-6.6,1.165-9.376l52.446-30.28c4.807-2.775,12.078-3.076,16.241-.672l54.781,31.628c4.162,2.4,3.64,6.6-1.167,9.374l-52.446,30.28C407.621,245.961,400.351,246.261,396.189,243.858Z" transform="translate(-300.676 -85.971)" fill="#084591" opacity="0.5"/>
          <path id="Path_70" data-name="Path 70" d="M524.352,217.983a6.011,6.011,0,0,0,0-.917v-45.2l-71.8.319-19.287-11.135c-6.586-3.8-18.091-3.326-25.7,1.066L389.64,172.471l-71.348.317v45.2h.034c-.187,2.573,1.247,5.057,4.413,6.883l86.678,50.043c6.585,3.8,18.09,3.326,25.694-1.064l82.984-47.91c3.951-2.282,6.056-5.169,6.258-7.951Z" transform="translate(-318.29 -96.197)" fill="#5cfff3" opacity="0.5"/>
          <path id="Path_71" data-name="Path 71" d="M524.353,187.6V171.418h-41.74l-49.35-28.493c-6.584-3.8-18.09-3.326-25.7,1.066l-47.5,27.427H318.291v17.1h.036c-.189,2.573,1.247,5.057,4.413,6.883l86.676,50.043c6.586,3.8,18.091,3.326,25.7-1.064l82.984-47.91C522.481,193.932,524.6,190.653,524.353,187.6Z" transform="translate(-318.291 -111.923)" fill="#0567e1"/>
          <path id="Path_72" data-name="Path 72" d="M524.353,187.6V171.418h-41.74l-49.35-28.493c-6.584-3.8-18.09-3.326-25.7,1.066l-47.5,27.427H318.291v17.1h.036c-.189,2.573,1.247,5.057,4.413,6.883l86.676,50.043c6.586,3.8,18.091,3.326,25.7-1.064l82.984-47.91C522.481,193.932,524.6,190.653,524.353,187.6Z" transform="translate(-318.291 -111.923)" opacity="0.5" fill="url(#linear-gradient)"/>
          <path id="Path_73" data-name="Path 73" d="M385.4,142.921a23.265,23.265,0,0,0-11.931-2.547V247.985a29.64,29.64,0,0,0,13.78-3.613l82.984-47.91c4.387-2.534,6.5-5.813,6.258-8.868V171.413H434.75Z" transform="translate(-270.429 -111.919)" fill="url(#linear-gradient-2)"/>
          <path id="Path_74" data-name="Path 74" d="M409.415,241.553,322.739,191.51c-6.586-3.8-5.761-10.444,1.843-14.835l82.984-47.91c7.606-4.392,19.109-4.868,25.7-1.066l86.678,50.043c6.586,3.8,5.761,10.444-1.845,14.837l-82.984,47.91C427.506,244.878,416,245.355,409.415,241.553Z" transform="translate(-318.29 -125.131)" fill="#0567e1"/>
          <path id="Path_75" data-name="Path 75" d="M409.415,241.553,322.739,191.51c-6.586-3.8-5.761-10.444,1.843-14.835l82.984-47.91c7.606-4.392,19.109-4.868,25.7-1.066l86.678,50.043c6.586,3.8,5.761,10.444-1.845,14.837l-82.984,47.91C427.506,244.878,416,245.355,409.415,241.553Z" transform="translate(-318.29 -125.131)" opacity="0.5" fill="url(#linear-gradient-3)"/>
          <path id="Path_76" data-name="Path 76" d="M402.432,225.122,332.595,184.8c-5.305-3.064-4.64-8.416,1.487-11.953l66.861-38.6c6.129-3.539,15.4-3.922,20.7-.859l69.836,40.321c5.307,3.063,4.641,8.415-1.486,11.951l-66.861,38.6C417.007,227.8,407.738,228.187,402.432,225.122Z" transform="translate(-308.991 -119.762)" fill="#5cfff3"/>
          <path id="Path_77" data-name="Path 77" d="M334.08,178.08l66.861-38.6c6.129-3.537,15.4-3.922,20.7-.857l69.836,40.319a7.767,7.767,0,0,1,2.842,2.627c1.541-2.831.652-5.839-2.842-7.856L421.645,133.39c-5.307-3.063-14.575-2.68-20.7.859l-66.861,38.6c-4.614,2.665-6.127,6.357-4.329,9.326A11.1,11.1,0,0,1,334.08,178.08Z" transform="translate(-308.989 -119.762)" fill="#42e8e0"/>
          <path id="Path_78" data-name="Path 78" d="M412.326,241.547,325.648,191.5c-6.586-3.8-8.161-9.387,1.845-14.835l82.984-47.91a29.374,29.374,0,0,1,13-3.589,30.153,30.153,0,0,0-15.912,3.589l-82.984,47.91c-7.6,4.39-8.43,11.033-1.843,14.835l86.676,50.043c3.348,1.933,7.964,2.754,12.695,2.525A21.807,21.807,0,0,1,412.326,241.547Z" transform="translate(-318.29 -125.125)" opacity="0.5" fill="url(#linear-gradient-3)"/>
          <path id="Path_79" data-name="Path 79" d="M518.095,169.236l-82.984,47.912c-7.6,4.39-19.109,4.866-25.7,1.064L322.739,168.17c-3.165-1.826-4.6-4.31-4.413-6.883h-.036v3.542h.036c-.189,2.573,1.247,5.057,4.413,6.883l86.676,50.043c6.586,3.8,18.091,3.326,25.7-1.064l82.984-47.91c4.387-2.534,6.5-5.813,6.258-8.868V160.37C524.6,163.423,522.481,166.7,518.095,169.236Z" transform="translate(-318.291 -94.565)" opacity="0.5" fill="url(#linear-gradient-5)"/>
          <g id="Group_25" data-name="Group 25" transform="translate(180.619 63.383)">
            <path id="Path_80" data-name="Path 80" d="M419.148,162.783a1.043,1.043,0,0,1,0,1.978,3.789,3.789,0,0,1-3.425,0,1.043,1.043,0,0,1,0-1.978A3.778,3.778,0,0,1,419.148,162.783Z" transform="translate(-415.013 -156.212)" fill="#fccc6b"/>
            <path id="Path_81" data-name="Path 81" d="M422,161.132a1.044,1.044,0,0,1,0,1.978,3.778,3.778,0,0,1-3.425,0,1.044,1.044,0,0,1,0-1.978A3.79,3.79,0,0,1,422,161.132Z" transform="translate(-412.535 -157.642)" fill="#fccc6b"/>
            <path id="Path_82" data-name="Path 82" d="M424.862,159.484a1.044,1.044,0,0,1,0,1.978,3.793,3.793,0,0,1-3.427,0,1.044,1.044,0,0,1,0-1.978A3.782,3.782,0,0,1,424.862,159.484Z" transform="translate(-410.057 -159.073)" fill="#fccc6b"/>
          </g>
        </g>
        <g id="Group_27" data-name="Group 27" transform="translate(284.562 81.561)">
          <path id="Path_83" data-name="Path 83" d="M548.572,243.485l-54.781-31.627c-4.162-2.4-3.641-6.6,1.165-9.376L547.4,172.2c4.807-2.775,12.078-3.077,16.241-.674l54.781,31.628c4.162,2.4,3.64,6.6-1.167,9.376l-52.446,30.28C560,245.588,552.734,245.889,548.572,243.485Z" transform="translate(-453.059 -85.598)" fill="#084591" opacity="0.5"/>
          <path id="Path_84" data-name="Path 84" d="M676.739,217.633a5.978,5.978,0,0,0,0-.915v-45.2l-71.8.319L585.65,160.706c-6.586-3.8-18.092-3.326-25.7,1.064l-17.927,10.351-71.348.317v45.193h.034c-.187,2.575,1.247,5.059,4.413,6.885L561.8,274.561c6.585,3.8,18.09,3.326,25.694-1.064l82.984-47.912c3.951-2.28,6.056-5.169,6.258-7.951Z" transform="translate(-470.67 -95.805)" fill="#5cfff3" opacity="0.5"/>
          <path id="Path_85" data-name="Path 85" d="M676.736,187.225V171.046H635l-49.35-28.493c-6.585-3.8-18.09-3.324-25.7,1.066l-47.5,27.427H470.674v17.1h.035c-.189,2.573,1.247,5.057,4.413,6.885L561.8,245.068c6.586,3.8,18.091,3.328,25.7-1.064l82.984-47.91C674.864,193.561,676.982,190.28,676.736,187.225Z" transform="translate(-470.674 -111.551)" fill="#0567e1"/>
          <path id="Path_86" data-name="Path 86" d="M676.736,187.225V171.046H635l-49.35-28.493c-6.585-3.8-18.09-3.324-25.7,1.066l-47.5,27.427H470.674v17.1h.035c-.189,2.573,1.247,5.057,4.413,6.885L561.8,245.068c6.586,3.8,18.091,3.328,25.7-1.064l82.984-47.91C674.864,193.561,676.982,190.28,676.736,187.225Z" transform="translate(-470.674 -111.551)" opacity="0.5" fill="url(#linear-gradient)"/>
          <path id="Path_87" data-name="Path 87" d="M537.783,142.548A23.284,23.284,0,0,0,525.852,140V247.613A29.64,29.64,0,0,0,539.632,244l82.984-47.91c4.387-2.532,6.5-5.813,6.258-8.868V171.042h-41.74Z" transform="translate(-422.812 -111.547)" fill="url(#linear-gradient-2)"/>
          <path id="Path_88" data-name="Path 88" d="M561.8,241.181l-86.676-50.043c-6.586-3.8-5.761-10.444,1.843-14.835l82.984-47.91c7.606-4.392,19.111-4.868,25.7-1.066l86.676,50.043c6.586,3.8,5.761,10.444-1.845,14.837l-82.984,47.91C579.889,244.506,568.384,244.984,561.8,241.181Z" transform="translate(-470.673 -124.759)" fill="#0567e1"/>
          <path id="Path_89" data-name="Path 89" d="M561.8,241.181l-86.676-50.043c-6.586-3.8-5.761-10.444,1.843-14.835l82.984-47.91c7.606-4.392,19.111-4.868,25.7-1.066l86.676,50.043c6.586,3.8,5.761,10.444-1.845,14.837l-82.984,47.91C579.889,244.506,568.384,244.984,561.8,241.181Z" transform="translate(-470.673 -124.759)" opacity="0.5" fill="url(#linear-gradient-3)"/>
          <path id="Path_90" data-name="Path 90" d="M564.709,241.175l-86.678-50.043c-6.586-3.8-8.161-9.386,1.845-14.835l82.984-47.91a29.374,29.374,0,0,1,13-3.589,30.154,30.154,0,0,0-15.912,3.589L476.965,176.3c-7.6,4.39-8.43,11.033-1.843,14.835L561.8,241.175c3.348,1.933,7.964,2.754,12.695,2.525A21.808,21.808,0,0,1,564.709,241.175Z" transform="translate(-470.673 -124.754)" opacity="0.5" fill="url(#linear-gradient-3)"/>
          <path id="Path_91" data-name="Path 91" d="M670.478,168.866l-82.984,47.91c-7.6,4.39-19.109,4.868-25.7,1.064L475.122,167.8c-3.165-1.826-4.6-4.31-4.413-6.883h-.035v3.542h.035c-.189,2.573,1.247,5.057,4.413,6.885L561.8,221.385c6.586,3.8,18.091,3.324,25.7-1.066l82.984-47.91c4.387-2.532,6.5-5.813,6.258-8.868V160C676.982,163.051,674.864,166.332,670.478,168.866Z" transform="translate(-470.674 -94.193)" opacity="0.5" fill="url(#linear-gradient-5)"/>
        </g>
        <g id="Group_32" data-name="Group 32" transform="translate(142.282 163.817)">
          <g id="Group_29" data-name="Group 29" transform="translate(0 62.291)">
            <path id="Path_92" data-name="Path 92" d="M482.116,343.8l-78.26-45.182c-5.946-3.434-5.2-9.43,1.666-13.395l74.924-43.257c6.867-3.965,17.253-4.4,23.2-.962L581.9,286.182c5.946,3.434,5.2,9.43-1.666,13.395l-74.924,43.257C498.448,346.8,488.062,347.229,482.116,343.8Z" transform="translate(-389.833 -170.489)" fill="#084591" opacity="0.5"/>
            <path id="Path_93" data-name="Path 93" d="M600.543,264.631V248.451H558.8l-49.348-28.493c-6.586-3.8-18.091-3.326-25.7,1.066l-47.505,27.427h-41.77v17.1h.034c-.187,2.573,1.247,5.057,4.413,6.883l86.678,50.043c6.586,3.8,18.09,3.326,25.7-1.064l82.984-47.91C598.673,270.965,600.789,267.686,600.543,264.631Z" transform="translate(-394.483 -188.956)" fill="#0567e1"/>
            <path id="Path_94" data-name="Path 94" d="M600.543,264.631V248.451H558.8l-49.348-28.493c-6.586-3.8-18.091-3.326-25.7,1.066l-47.505,27.427h-41.77v17.1h.034c-.187,2.573,1.247,5.057,4.413,6.883l86.678,50.043c6.586,3.8,18.09,3.326,25.7-1.064l82.984-47.91C598.673,270.965,600.789,267.686,600.543,264.631Z" transform="translate(-394.483 -188.956)" opacity="0.5" fill="url(#linear-gradient)"/>
            <path id="Path_95" data-name="Path 95" d="M461.592,219.954a23.273,23.273,0,0,0-11.931-2.547V325.018a29.64,29.64,0,0,0,13.78-3.613l82.984-47.91c4.387-2.534,6.5-5.813,6.256-8.868V248.447H510.94Z" transform="translate(-346.621 -188.952)" fill="url(#linear-gradient-2)"/>
            <path id="Path_96" data-name="Path 96" d="M485.607,318.586l-86.678-50.043c-6.586-3.8-5.761-10.444,1.845-14.835l82.984-47.91c7.6-4.392,19.109-4.868,25.7-1.066l86.678,50.043c6.585,3.8,5.759,10.444-1.845,14.837L511.3,317.521C503.7,321.911,492.192,322.39,485.607,318.586Z" transform="translate(-394.483 -202.164)" fill="#0567e1"/>
            <path id="Path_97" data-name="Path 97" d="M485.607,318.586l-86.678-50.043c-6.586-3.8-5.761-10.444,1.845-14.835l82.984-47.91c7.6-4.392,19.109-4.868,25.7-1.066l86.678,50.043c6.585,3.8,5.759,10.444-1.845,14.837L511.3,317.521C503.7,321.911,492.192,322.39,485.607,318.586Z" transform="translate(-394.483 -202.164)" opacity="0.5" fill="url(#linear-gradient-3)"/>
            <path id="Path_98" data-name="Path 98" d="M478.623,302.155l-69.836-40.319c-5.307-3.064-4.641-8.415,1.486-11.953l66.861-38.6c6.127-3.539,15.4-3.922,20.7-.859l69.838,40.321c5.305,3.063,4.64,8.415-1.487,11.951l-66.861,38.6C493.2,304.835,483.93,305.22,478.623,302.155Z" transform="translate(-385.183 -196.795)" fill="#5cfff3"/>
            <path id="Path_99" data-name="Path 99" d="M410.272,255.113l66.861-38.6c6.127-3.537,15.4-3.922,20.7-.857l69.838,40.319a7.784,7.784,0,0,1,2.842,2.627c1.541-2.831.652-5.839-2.842-7.856l-69.838-40.321c-5.305-3.063-14.575-2.68-20.7.859l-66.861,38.6c-4.614,2.665-6.129,6.357-4.329,9.326A11.085,11.085,0,0,1,410.272,255.113Z" transform="translate(-385.181 -196.795)" fill="#42e8e0"/>
            <path id="Path_100" data-name="Path 100" d="M488.517,318.58l-86.678-50.043c-6.584-3.8-8.159-9.388,1.845-14.835l82.984-47.91a29.382,29.382,0,0,1,13-3.589,30.146,30.146,0,0,0-15.91,3.589L400.774,253.7c-7.606,4.39-8.431,11.033-1.845,14.835l86.678,50.043c3.346,1.933,7.965,2.754,12.695,2.525A21.807,21.807,0,0,1,488.517,318.58Z" transform="translate(-394.483 -202.158)" opacity="0.5" fill="url(#linear-gradient-3)"/>
            <path id="Path_101" data-name="Path 101" d="M594.287,246.27,511.3,294.182c-7.606,4.39-19.109,4.866-25.7,1.064L398.929,245.2c-3.165-1.826-4.6-4.31-4.413-6.883h-.034v3.542h.034c-.187,2.573,1.247,5.057,4.413,6.883l86.678,50.043c6.586,3.8,18.09,3.326,25.7-1.064l82.984-47.91c4.386-2.534,6.5-5.813,6.256-8.868V237.4C600.789,240.456,598.673,243.737,594.287,246.27Z" transform="translate(-394.483 -171.598)" opacity="0.5" fill="url(#linear-gradient-5)"/>
            <g id="Group_28" data-name="Group 28" transform="translate(180.619 63.383)">
              <path id="Path_102" data-name="Path 102" d="M495.34,239.816a1.044,1.044,0,0,1,0,1.978,3.793,3.793,0,0,1-3.427,0,1.044,1.044,0,0,1,0-1.978A3.782,3.782,0,0,1,495.34,239.816Z" transform="translate(-491.205 -233.245)" fill="#fccc6b"/>
              <path id="Path_103" data-name="Path 103" d="M498.2,238.165a1.044,1.044,0,0,1,0,1.978,3.782,3.782,0,0,1-3.427,0,1.044,1.044,0,0,1,0-1.978A3.794,3.794,0,0,1,498.2,238.165Z" transform="translate(-488.726 -234.675)" fill="#fccc6b"/>
              <path id="Path_104" data-name="Path 104" d="M501.053,236.517a1.043,1.043,0,0,1,0,1.978,3.789,3.789,0,0,1-3.425,0,1.043,1.043,0,0,1,0-1.978A3.778,3.778,0,0,1,501.053,236.517Z" transform="translate(-486.249 -236.106)" fill="#fccc6b"/>
            </g>
          </g>
          <g id="Group_30" data-name="Group 30">
            <path id="Path_105" data-name="Path 105" d="M472.38,287.534,417.6,255.905c-4.162-2.4-3.64-6.6,1.167-9.376l52.446-30.28c4.807-2.775,12.077-3.076,16.239-.672l54.781,31.628c4.162,2.4,3.641,6.6-1.165,9.376l-52.446,30.28C483.814,289.635,476.542,289.937,472.38,287.534Z" transform="translate(-376.869 -129.647)" fill="#084591" opacity="0.5"/>
            <path id="Path_106" data-name="Path 106" d="M600.543,261.659a6.018,6.018,0,0,0,0-.917v-45.2l-71.8.319-19.287-11.135c-6.586-3.8-18.091-3.326-25.7,1.066l-17.927,10.349-71.348.318v45.2h.034c-.187,2.573,1.247,5.057,4.413,6.883l86.678,50.043c6.586,3.8,18.09,3.326,25.7-1.064l82.984-47.91c3.95-2.282,6.054-5.169,6.256-7.951Z" transform="translate(-394.483 -139.873)" fill="#5cfff3" opacity="0.5"/>
            <path id="Path_107" data-name="Path 107" d="M600.543,231.274V215.094H558.8L509.454,186.6c-6.586-3.8-18.091-3.326-25.7,1.066l-47.505,27.427h-41.77v17.1h.034c-.187,2.573,1.247,5.057,4.413,6.883l86.678,50.043c6.586,3.8,18.09,3.326,25.7-1.064l82.984-47.91C598.673,237.608,600.789,234.329,600.543,231.274Z" transform="translate(-394.483 -155.599)" fill="#0567e1"/>
            <path id="Path_108" data-name="Path 108" d="M600.543,231.274V215.094H558.8L509.454,186.6c-6.586-3.8-18.091-3.326-25.7,1.066l-47.505,27.427h-41.77v17.1h.034c-.187,2.573,1.247,5.057,4.413,6.883l86.678,50.043c6.586,3.8,18.09,3.326,25.7-1.064l82.984-47.91C598.673,237.608,600.789,234.329,600.543,231.274Z" transform="translate(-394.483 -155.599)" opacity="0.5" fill="url(#linear-gradient)"/>
            <path id="Path_109" data-name="Path 109" d="M461.592,186.6a23.273,23.273,0,0,0-11.931-2.547V291.661a29.64,29.64,0,0,0,13.78-3.613l82.984-47.91c4.387-2.534,6.5-5.813,6.256-8.868V215.09H510.94Z" transform="translate(-346.621 -155.595)" fill="url(#linear-gradient-2)"/>
            <path id="Path_110" data-name="Path 110" d="M485.607,285.229l-86.678-50.043c-6.586-3.8-5.761-10.444,1.845-14.835l82.984-47.91c7.6-4.392,19.109-4.868,25.7-1.066l86.678,50.043c6.585,3.8,5.759,10.444-1.845,14.837L511.3,284.164C503.7,288.555,492.192,289.033,485.607,285.229Z" transform="translate(-394.483 -168.807)" fill="#0567e1"/>
            <path id="Path_111" data-name="Path 111" d="M485.607,285.229l-86.678-50.043c-6.586-3.8-5.761-10.444,1.845-14.835l82.984-47.91c7.6-4.392,19.109-4.868,25.7-1.066l86.678,50.043c6.585,3.8,5.759,10.444-1.845,14.837L511.3,284.164C503.7,288.555,492.192,289.033,485.607,285.229Z" transform="translate(-394.483 -168.807)" opacity="0.5" fill="url(#linear-gradient-3)"/>
            <path id="Path_112" data-name="Path 112" d="M488.517,285.223,401.839,235.18c-6.584-3.8-8.159-9.387,1.845-14.835l82.984-47.91a29.381,29.381,0,0,1,13-3.589,30.147,30.147,0,0,0-15.91,3.589l-82.984,47.91c-7.606,4.39-8.431,11.033-1.845,14.835l86.678,50.043c3.346,1.933,7.965,2.754,12.695,2.525A21.808,21.808,0,0,1,488.517,285.223Z" transform="translate(-394.483 -168.802)" opacity="0.5" fill="url(#linear-gradient-3)"/>
            <path id="Path_113" data-name="Path 113" d="M594.287,212.912,511.3,260.825c-7.606,4.39-19.109,4.866-25.7,1.064l-86.678-50.043c-3.165-1.826-4.6-4.31-4.413-6.883h-.034v3.543h.034c-.187,2.573,1.247,5.057,4.413,6.883l86.678,50.043c6.586,3.8,18.09,3.326,25.7-1.064l82.984-47.91c4.386-2.534,6.5-5.813,6.256-8.868v-3.542C600.789,207.1,598.673,210.38,594.287,212.912Z" transform="translate(-394.483 -138.241)" opacity="0.5" fill="url(#linear-gradient-5)"/>
          </g>
          <g id="Group_31" data-name="Group 31" transform="translate(88.286 50.615)">
            <path id="Path_114" data-name="Path 114" d="M449.629,202.968c1.8,1.04,1.8,2.725,0,3.765a7.212,7.212,0,0,1-6.519,0c-1.8-1.04-1.8-2.725,0-3.765A7.212,7.212,0,0,1,449.629,202.968Z" transform="translate(-441.76 -190.467)" fill="#5cfff3" opacity="0.2"/>
            <path id="Path_115" data-name="Path 115" d="M455.065,199.83c1.8,1.038,1.8,2.725,0,3.763a7.2,7.2,0,0,1-6.517,0c-1.8-1.04-1.8-2.725,0-3.763A7.2,7.2,0,0,1,455.065,199.83Z" transform="translate(-437.044 -193.19)" fill="#5cfff3" opacity="0.6"/>
            <path id="Path_116" data-name="Path 116" d="M460.5,196.691c1.8,1.04,1.8,2.725,0,3.765a7.208,7.208,0,0,1-6.517,0c-1.8-1.04-1.8-2.725,0-3.765A7.208,7.208,0,0,1,460.5,196.691Z" transform="translate(-432.329 -195.912)" fill="#5cfff3"/>
          </g>
          <path id="Path_117" data-name="Path 117" d="M484.791,266.028a17.475,17.475,0,0,1-8.575-1.972l-64.088-37c-2.331-1.345-3.615-3.238-3.615-5.33,0-2.476,1.815-4.945,4.979-6.769l61.359-35.427c5.793-3.348,14.613-3.7,19.651-.788l64.091,37c2.331,1.345,3.613,3.238,3.613,5.33,0,2.476-1.815,4.945-4.979,6.769l-61.358,35.427A22.753,22.753,0,0,1,484.791,266.028Zm-7.922-3.1c4.682,2.7,12.909,2.349,18.347-.788l61.359-35.425c2.747-1.587,4.323-3.643,4.323-5.64,0-1.6-1.05-3.1-2.96-4.2l-64.09-37c-4.687-2.7-12.913-2.347-18.347.788l-61.358,35.425c-2.749,1.587-4.323,3.643-4.323,5.64,0,1.6,1.049,3.1,2.96,4.2Z" transform="translate(-382.313 -161.904)" fill="#084591" opacity="0.5"/>
        </g>
        <path id="Path_118" data-name="Path 118" d="M560.983,222.354a17.485,17.485,0,0,1-8.579-1.974l-64.09-37c-2.331-1.345-3.613-3.238-3.613-5.328,0-2.476,1.815-4.945,4.979-6.773l61.358-35.425c5.793-3.345,14.611-3.7,19.653-.788l64.09,37c2.331,1.346,3.615,3.238,3.615,5.33,0,2.478-1.815,4.945-4.979,6.769l-61.36,35.427A22.736,22.736,0,0,1,560.983,222.354Zm-7.927-3.105c4.683,2.7,12.913,2.349,18.349-.784l61.358-35.427c2.749-1.587,4.325-3.641,4.325-5.64,0-1.6-1.051-3.1-2.962-4.2l-64.09-37c-4.68-2.7-12.908-2.349-18.346.788l-61.358,35.423c-2.749,1.589-4.325,3.647-4.325,5.643,0,1.6,1.053,3.094,2.96,4.2Z" transform="translate(-173.945 -35.97)" fill="#084591" opacity="0.5"/>
        <path id="Path_119" data-name="Path 119" d="M484.924,178.708a17.773,17.773,0,0,1-8.719-2.006l-64.088-37c-2.42-1.4-3.753-3.374-3.753-5.57,0-2.581,1.864-5.137,5.117-7.016L474.84,91.692c5.871-3.391,14.812-3.748,19.933-.788l64.09,37c2.422,1.4,3.755,3.378,3.753,5.574,0,2.577-1.865,5.135-5.119,7.01L496.14,175.916A23.045,23.045,0,0,1,484.924,178.708Zm-7.785-3.621c4.607,2.654,12.711,2.3,18.067-.786l61.358-35.427c2.659-1.535,4.185-3.5,4.185-5.395,0-1.5-1-2.908-2.82-3.959l-64.09-37c-4.6-2.655-12.708-2.3-18.065.788l-61.359,35.425c-2.659,1.537-4.185,3.505-4.183,5.4,0,1.5,1,2.9,2.82,3.953Z" transform="translate(-240.16 -74.306)" fill="#084591" opacity="0.5"/>
      </g>
      <g id="Group_34" data-name="Group 34" transform="translate(49.785 217.421)">
        <path id="Path_120" data-name="Path 120" d="M426.666,177.352l-57.9-33.429,4.156-2.4,57.9,33.429Z" transform="translate(-324.294 -141.523)" fill="#42e8e0"/>
        <path id="Path_121" data-name="Path 121" d="M421.9,180.1,364,146.672l4.156-2.4,57.9,33.429Z" transform="translate(-328.426 -139.138)" fill="#42e8e0"/>
        <path id="Path_122" data-name="Path 122" d="M417.14,182.851l-57.9-33.429,4.156-2.4,57.9,33.429Z" transform="translate(-332.557 -136.753)" fill="#42e8e0"/>
        <path id="Path_123" data-name="Path 123" d="M412.377,185.6l-57.9-33.429,4.156-2.4,57.9,33.429Z" transform="translate(-336.688 -134.367)" fill="#42e8e0"/>
        <path id="Path_124" data-name="Path 124" d="M407.614,188.351l-57.9-33.429,4.156-2.4,57.9,33.429Z" transform="translate(-340.819 -131.982)" fill="#42e8e0"/>
        <path id="Path_125" data-name="Path 125" d="M402.852,191.1l-57.9-33.429,4.156-2.4,57.9,33.429Z" transform="translate(-344.951 -129.597)" fill="#42e8e0"/>
      </g>
      <g id="Group_35" data-name="Group 35" transform="translate(372.85 237.083)">
        <path id="Path_126" data-name="Path 126" d="M525.819,159.109c1.8,1.038,1.8,2.725,0,3.763a7.2,7.2,0,0,1-6.517,0c-1.8-1.038-1.8-2.725,0-3.763A7.2,7.2,0,0,1,525.819,159.109Z" transform="translate(-517.952 -146.607)" fill="#5cfff3" opacity="0.2"/>
        <path id="Path_127" data-name="Path 127" d="M531.257,155.97c1.8,1.04,1.8,2.725,0,3.765a7.206,7.206,0,0,1-6.519,0c-1.8-1.038-1.8-2.723,0-3.763A7.211,7.211,0,0,1,531.257,155.97Z" transform="translate(-513.237 -149.33)" fill="#5cfff3" opacity="0.6"/>
        <path id="Path_128" data-name="Path 128" d="M536.693,152.832c1.8,1.038,1.8,2.723,0,3.763a7.212,7.212,0,0,1-6.519,0c-1.8-1.04-1.8-2.725,0-3.763A7.2,7.2,0,0,1,536.693,152.832Z" transform="translate(-508.522 -152.052)" fill="#5cfff3"/>
      </g>
      <g id="Group_36" data-name="Group 36" transform="translate(230.568 155.522)">
        <path id="Path_129" data-name="Path 129" d="M449.629,115.433c1.8,1.038,1.8,2.725,0,3.763a7.206,7.206,0,0,1-6.519,0c-1.8-1.038-1.8-2.725,0-3.763A7.2,7.2,0,0,1,449.629,115.433Z" transform="translate(-441.76 -102.931)" fill="#5cfff3" opacity="0.2"/>
        <path id="Path_130" data-name="Path 130" d="M455.065,112.294c1.8,1.04,1.8,2.725,0,3.763a7.2,7.2,0,0,1-6.517,0c-1.8-1.038-1.8-2.723,0-3.763A7.211,7.211,0,0,1,455.065,112.294Z" transform="translate(-437.044 -105.653)" fill="#5cfff3" opacity="0.6"/>
        <path id="Path_131" data-name="Path 131" d="M460.5,109.155c1.8,1.04,1.8,2.725,0,3.765a7.208,7.208,0,0,1-6.517,0c-1.8-1.04-1.8-2.725,0-3.765A7.208,7.208,0,0,1,460.5,109.155Z" transform="translate(-432.329 -108.376)" fill="#5cfff3"/>
      </g>
      <path id="Path_132" data-name="Path 132" d="M494.941,270V25.094H329.02V271.785c0,.077,0,.151,0,.226h0c.1,1.852,1.274,3.608,3.57,4.936l69.838,40.319c5.305,3.064,14.575,2.68,20.7-.857l66.861-38.6C493.843,275.581,495.533,272.642,494.941,270Z" transform="translate(-308.986 -25.094)" opacity="0.4" fill="url(#linear-gradient-41)" style="mix-blend-mode: lighten;isolation: isolate"/>
    </g>
    <g id="Group_47" data-name="Group 47" transform="translate(814.499 498.96)">
      <path id="Path_283" data-name="Path 283" d="M582.989,249.883a19.422,19.422,0,0,1-9.533-2.19L462.879,183.854c-2.515-1.453-3.9-3.475-3.9-5.7,0-2.663,1.987-5.335,5.449-7.335L571.9,108.767c6.467-3.731,16.293-4.131,21.9-.895L704.38,171.714c2.515,1.453,3.9,3.475,3.9,5.7,0,2.663-1.985,5.335-5.449,7.337L595.359,246.8A25.421,25.421,0,0,1,582.989,249.883Zm1.285-143.537a24.73,24.73,0,0,0-12.035,3L464.763,171.4c-3.247,1.875-5.111,4.336-5.111,6.753,0,1.972,1.264,3.789,3.563,5.115L573.792,247.11c5.429,3.135,14.952,2.734,21.231-.893L702.5,184.165c3.247-1.875,5.111-4.336,5.111-6.753,0-1.972-1.266-3.789-3.563-5.115L593.471,108.457A18.751,18.751,0,0,0,584.274,106.347Z" transform="translate(-401.819 -105.055)" fill="#6ee8fc"/>
      <ellipse id="Ellipse_14" data-name="Ellipse 14" cx="70.291" cy="40.582" rx="70.291" ry="40.582" transform="translate(0 18.566)" opacity="0.3" fill="url(#radial-gradient)" style="mix-blend-mode: lighten;isolation: isolate"/>
      <g id="Group_42" data-name="Group 42" transform="translate(141.337 0)">
        <circle id="Ellipse_15" data-name="Ellipse 15" cx="13.103" cy="13.103" r="13.103" fill="url(#radial-gradient-2)" style="mix-blend-mode: lighten;isolation: isolate"/>
        <path id="Path_284" data-name="Path 284" d="M516.543,114.1a3.736,3.736,0,1,1-3.735-3.737A3.736,3.736,0,0,1,516.543,114.1Z" transform="translate(-499.704 -100.996)" fill="#6ee8fc"/>
      </g>
      <g id="Group_43" data-name="Group 43" transform="translate(57.187 48.68)">
        <path id="Path_285" data-name="Path 285" d="M485.2,144.519a13.1,13.1,0,1,1-13.1-13.1A13.1,13.1,0,0,1,485.2,144.519Z" transform="translate(-458.993 -131.415)" fill="url(#radial-gradient-2)" style="mix-blend-mode: lighten;isolation: isolate"/>
        <path id="Path_286" data-name="Path 286" d="M471.48,140.167a3.735,3.735,0,1,1-3.735-3.735A3.734,3.734,0,0,1,471.48,140.167Z" transform="translate(-454.641 -127.063)" fill="#6ee8fc"/>
      </g>
      <g id="Group_44" data-name="Group 44" transform="translate(231.021 99.115)">
        <path id="Path_287" data-name="Path 287" d="M578.288,171.525a13.1,13.1,0,1,1-13.1-13.1A13.1,13.1,0,0,1,578.288,171.525Z" transform="translate(-552.081 -158.423)" fill="url(#radial-gradient-2)" style="mix-blend-mode: lighten;isolation: isolate"/>
        <path id="Path_288" data-name="Path 288" d="M564.568,167.174a3.735,3.735,0,1,1-3.735-3.735A3.735,3.735,0,0,1,564.568,167.174Z" transform="translate(-547.729 -154.072)" fill="#6ee8fc"/>
      </g>
      <g id="Group_45" data-name="Group 45" transform="translate(255.311 84.801)">
        <path id="Path_289" data-name="Path 289" d="M591.3,163.86a13.1,13.1,0,1,1-13.1-13.1A13.1,13.1,0,0,1,591.3,163.86Z" transform="translate(-565.088 -150.758)" fill="url(#radial-gradient-2)" style="mix-blend-mode: lighten;isolation: isolate"/>
        <path id="Path_290" data-name="Path 290" d="M577.575,159.509a3.735,3.735,0,1,1-3.735-3.735A3.735,3.735,0,0,1,577.575,159.509Z" transform="translate(-560.736 -146.407)" fill="#6ee8fc"/>
      </g>
      <g id="Group_46" data-name="Group 46" transform="translate(279.601 70.704)">
        <circle id="Ellipse_16" data-name="Ellipse 16" cx="13.103" cy="13.103" r="13.103" fill="url(#radial-gradient-2)" style="mix-blend-mode: lighten;isolation: isolate"/>
        <path id="Path_291" data-name="Path 291" d="M590.582,151.962a3.735,3.735,0,1,1-3.735-3.737A3.735,3.735,0,0,1,590.582,151.962Z" transform="translate(-573.744 -138.858)" fill="#6ee8fc"/>
      </g>
    </g>
  </g>
</svg>
